<?xml version="1.0" encoding="UTF-8"?>
<svg id="Layer_1" data-name="Layer 1" xmlns="http://www.w3.org/2000/svg" viewBox="0 0 1575.65 566.93">
  <defs>
    <style>
      .cls-1 {
        fill: #000;
      }

      .cls-1, .cls-2, .cls-3 {
        stroke-width: 0px;
      }

      .cls-2 {
        fill: #31cbea;
      }

      .cls-3 {
        fill: #fff;
      }
    </style>
  </defs>
  <g>
    <path class="cls-1" d="M56.49,325.63l10.31-11.71c8.9,13.12,20.85,20.15,35.37,20.15,20.15,0,30.45-11.95,30.45-36.07v-99.32h-59.97v-14.99h77.07v113.61c0,34.67-16.4,51.77-47.79,51.77-18.51,0-35.37-8.43-45.45-23.43Z"/>
    <path class="cls-1" d="M241.66,223.5c-36.07,0-62.77,25.99-62.77,62.54s26.71,62.77,62.77,62.77,62.55-26.24,62.55-62.77-26.47-62.54-62.55-62.54ZM241.66,334.06c-26.24,0-45.91-19.21-45.91-48.02s19.67-48.02,45.91-48.02,45.68,19.21,45.68,48.02-19.44,48.02-45.68,48.02Z"/>
    <path class="cls-3" d="M241.66,238.02c-26.24,0-45.91,19.21-45.91,48.02s19.67,48.02,45.91,48.02,45.68-19.21,45.68-48.02-19.44-48.02-45.68-48.02ZM241.55,323.19c-20.46,0-37.04-16.58-37.04-37.04s16.58-37.04,37.04-37.04,37.04,16.6,37.04,37.04-16.58,37.04-37.04,37.04Z"/>
    <path class="cls-1" d="M316.47,333.59l7.5-13.12c9.84,7.73,26.47,13.82,43.8,13.82,23.43,0,33.03-7.96,33.03-20.14,0-32.09-79.88-6.79-79.88-55.52,0-20.14,17.34-35.14,48.72-35.14,15.93,0,33.27,4.45,43.57,11.48l-7.26,13.35c-10.78-7.5-23.66-10.54-36.31-10.54-22.25,0-32.09,8.67-32.09,20.38,0,33.26,79.88,8.2,79.88,55.52,0,21.32-18.74,35.14-50.83,35.14-20.38,0-40.06-6.56-50.13-15.23Z"/>
    <path class="cls-1" d="M551.26,291.2h-103.07c1.87,25.77,21.55,42.87,48.49,42.87,14.99,0,28.35-5.39,37.72-16.16l9.37,10.77c-11.01,13.12-28.11,20.15-47.55,20.15-38.42,0-64.65-26.24-64.65-62.78s25.53-62.55,60.2-62.55,59.74,25.53,59.74,62.55c0,1.41-.23,3.28-.23,5.15ZM448.19,278.78h87.38c-2.11-24.13-19.68-40.99-43.81-40.99s-41.46,16.87-43.57,40.99Z"/>
    <path class="cls-1" d="M702.36,286.04c0,37.48-26.24,62.78-61.37,62.78-19.68,0-36.54-8.43-46.85-24.36v68.64h-16.63v-168.66h15.93v24.36c10.07-16.4,27.17-25.3,47.55-25.3,35.14,0,61.37,25.3,61.37,62.55ZM685.73,286.04c0-28.58-19.91-48.02-45.91-48.02s-45.91,19.44-45.91,48.02,19.68,48.02,45.91,48.02,45.91-19.21,45.91-48.02Z"/>
    <path class="cls-1" d="M842.79,276.2v71.45h-16.63v-69.81c0-26-13.59-39.35-37.01-39.35-26.47,0-43.1,16.4-43.1,44.51v64.65h-16.63v-173.81h16.63v72.15c9.14-14.29,25.3-22.49,46.15-22.49,29.98,0,50.6,17.33,50.6,52.71Z"/>
    <path class="cls-1" d="M937.2,327.74l6.79-13.35c11.71,11.48,32.56,19.91,54.11,19.91,30.69,0,44.04-12.88,44.04-29.05,0-44.98-100.96-17.33-100.96-78.01,0-24.13,18.74-44.98,60.44-44.98,18.51,0,37.71,5.39,50.83,14.52l-5.86,13.82c-14.06-9.14-30.45-13.59-44.98-13.59-29.98,0-43.34,13.35-43.34,29.75,0,44.98,100.96,17.8,100.96,77.54,0,24.13-19.21,44.74-61.14,44.74-24.6,0-48.72-8.67-60.91-21.32Z"/>
    <path class="cls-1" d="M1181.2,271.28v76.37h-15.93v-19.21c-7.5,12.65-22.02,20.38-42.4,20.38-27.88,0-44.98-14.53-44.98-35.84,0-18.97,12.18-34.9,47.55-34.9h39.12v-7.5c0-21.08-11.95-32.56-34.9-32.56-15.93,0-30.92,5.62-40.99,14.52l-7.5-12.41c12.42-10.54,30.69-16.63,50.13-16.63,31.86,0,49.9,15.93,49.9,47.79ZM1164.57,310.64v-20.15h-38.65c-23.89,0-31.62,9.37-31.62,22.02,0,14.29,11.48,23.19,31.16,23.19s32.56-8.9,39.12-25.07Z"/>
    <path class="cls-1" d="M1216.67,173.83h16.63v173.81h-16.63v-173.81Z"/>
    <path class="cls-1" d="M1379.54,291.2h-103.07c1.87,25.77,21.55,42.87,48.49,42.87,14.99,0,28.34-5.39,37.71-16.16l9.37,10.77c-11.01,13.12-28.11,20.15-47.55,20.15-38.42,0-64.65-26.24-64.65-62.78s25.53-62.55,60.2-62.55,59.73,25.53,59.73,62.55c0,1.41-.24,3.28-.24,5.15ZM1276.47,278.78h87.38c-2.11-24.13-19.68-40.99-43.8-40.99s-41.46,16.87-43.57,40.99Z"/>
    <path class="cls-1" d="M1519.16,276.2v71.45h-16.63v-69.81c0-26-13.59-39.35-37.01-39.35-26.47,0-43.1,16.4-43.1,44.51v64.65h-16.63v-173.81h16.63v72.15c9.14-14.29,25.3-22.49,46.15-22.49,29.98,0,50.6,17.33,50.6,52.71Z"/>
    <g>
      <path class="cls-2" d="M278.59,286.15c0,20.46-16.58,37.04-37.04,37.04s-37.04-16.58-37.04-37.04,16.58-37.04,37.04-37.04,37.04,16.6,37.04,37.04Z"/>
      <circle class="cls-1" cx="241.55" cy="286.16" r="22.84"/>
      <circle class="cls-3" cx="257.23" cy="270.48" r="9.26"/>
    </g>
  </g>
  <circle class="cls-2" cx="241.55" cy="286.16" r="29.76"/>
  <circle class="cls-1" cx="241.55" cy="286.16" r="18.35"/>
  <circle class="cls-3" cx="254.15" cy="273.56" r="7.44"/>
</svg>